# xmcd CD database file
#
# Track frame offsets:
#	150
#	18242
#	35175
#	55150
#	74907
#	86475
#	107735
#	126235
#	145635
#
# Disc length: 2234 seconds
#
# Revision: 3
# Processed by: cddbd v1.5.1PL0 Copyright (c) Steve Scherf et al.
# Submitted via: CDex 1.50
#
DISCID=8008b809
DTITLE=GRIM REAPER - Rock You To Hell
DYEAR=1987
DGENRE=Heavy Metal
TTITLE0=Rock You To Hell
TTITLE1=Night Of The Vampire
TTITLE2=Lust For Freedom
TTITLE3=When Heaven Comes Down
TTITLE4=Suck It And See
TTITLE5=Rock Me 'Till I Die
TTITLE6=You'll Wish You Were Never Born
TTITLE7=Waysted Love
TTITLE8=I Want More
EXTD=YEAR: 1987
EXTT0=
EXTT1=
EXTT2=
EXTT3=
EXTT4=
EXTT5=
EXTT6=
EXTT7=
EXTT8=
PLAYORDER=
